<svg width="22" height="16" viewBox="0 0 22 16" xmlns="http://www.w3.org/2000/svg">
    <path d="M21.065 1.54182C20.4683 0.418909 19.8206 0.212364 18.502 0.133818C17.1847 0.0392727 13.8724 0 11.0027 0C8.12762 0 4.81387 0.0392728 3.498 0.132364C2.18212 0.212364 1.53312 0.417454 0.930875 1.54182C0.31625 2.66327 0 4.59491 0 7.99564C0 7.99855 0 8 0 8C0 8.00291 0 8.00436 0 8.00436V8.00727C0 11.3935 0.31625 13.3396 0.930875 14.4495C1.53312 15.5724 2.18075 15.776 3.49662 15.8705C4.81388 15.952 8.12762 16 11.0027 16C13.8724 16 17.1847 15.952 18.5034 15.872C19.822 15.7775 20.4696 15.5738 21.0664 14.4509C21.6865 13.3411 22 11.3949 22 8.00873C22 8.00873 22 8.00436 22 8.00146C22 8.00146 22 7.99855 22 7.99709C22 4.59491 21.6865 2.66327 21.065 1.54182ZM8.25 12.3636V3.63636L15.125 8L8.25 12.3636Z" fill="white"/>
</svg>
