<svg width="22" height="18" viewBox="0 0 22 18" xmlns="http://www.w3.org/2000/svg">
<path fill-rule="evenodd" clip-rule="evenodd" d="M3.00008 2C2.45237 2 2.00008 2.45228 2.00008 3V15C2.00008 15.5477 2.45237 16 3.00008 16H19.0001C19.5478 16 20.0001 15.5477 20.0001 15V3C20.0001 2.45228 19.5478 2 19.0001 2H3.00008ZM8.18163e-05 3C8.18163e-05 1.34772 1.3478 0 3.00008 0H19.0001C20.6524 0 22.0001 1.34772 22.0001 3V15C22.0001 16.6523 20.6524 18 19.0001 18H3.00008C1.3478 18 8.18163e-05 16.6523 8.18163e-05 15V3Z"/>
<path fill-rule="evenodd" clip-rule="evenodd" d="M0.180853 2.42651C0.497567 1.97406 1.1211 1.86407 1.57355 2.18079L11.0001 8.77936L20.4266 2.18079C20.8791 1.86407 21.5026 1.97406 21.8193 2.42651C22.136 2.87896 22.026 3.5025 21.5736 3.81921L11.5736 10.8192C11.2292 11.0602 10.7709 11.0602 10.4266 10.8192L0.426626 3.81921C-0.0258233 3.5025 -0.135862 2.87896 0.180853 2.42651Z"/>
</svg>
