<svg width="21" height="22" viewBox="0 0 21 22" xmlns="http://www.w3.org/2000/svg">
    <path d="M2.69545 0H18.3048C19.7871 0 21 1.14975 21 2.82355V19.1764C21 20.8502 19.7871 22 18.3048 22H2.69545C1.21264 22 0 20.8502 0 19.1764V2.82355C0 1.14975 1.21264 0 2.69545 0ZM15.2977 2.44429C14.7777 2.44429 14.3527 2.88974 14.3527 3.4348V5.80545C14.3527 6.35029 14.7777 6.79595 15.2977 6.79595H17.6713C18.1913 6.79595 18.6168 6.35029 18.6168 5.80545V3.4348C18.6168 2.88974 18.1913 2.44429 17.6713 2.44429H15.2977ZM18.6267 9.30372H16.7784C16.9533 9.90186 17.0479 10.5355 17.0479 11.191C17.0479 14.8503 14.125 17.8166 10.5201 17.8166C6.91533 17.8166 3.99283 14.8503 3.99283 11.191C3.99283 10.535 4.08727 9.90164 4.26236 9.30372H2.33364V18.5968C2.33364 19.0777 2.70925 19.4715 3.16852 19.4715H17.7922C18.2515 19.4715 18.6271 19.078 18.6271 18.5968V9.30372H18.6267ZM10.5198 6.67104C8.19072 6.67104 6.30233 8.58767 6.30233 10.9522C6.30233 13.3168 8.19072 15.2334 10.5198 15.2334C12.8492 15.2334 14.7378 13.3168 14.7378 10.9522C14.7378 8.58767 12.8494 6.67104 10.5198 6.67104Z" fill="white"/>
</svg>
